{"title":"Andaaz (2003) HDRip 720p x264 AAC [ TaRa ].mkv","uid":16022074,"size":1225019210,"categoryP":"video","categoryS":"hd___movies","magnet":"?xt=urn:btih:6975e4b267cad2505517c4e9716718f633d3a243&amp;dn=Andaaz+%282003%29+HDRip+720p+x264+AAC+%5B+TaRa+%5D.mkv&amp;tr=udp%3A%2F%2Ftracker.leechers-paradise.org%3A6969&amp;tr=udp%3A%2F%2Fzer0day.ch%3A1337&amp;tr=udp%3A%2F%2Fopen.demonii.com%3A1337&amp;tr=udp%3A%2F%2Ftracker.coppersurfer.tk%3A6969&amp;tr=udp%3A%2F%2Fexodus.desync.com%3A6969","seeders":0,"leechers":2,"uploader":"MdTaRa","files":1,"time":1476350101,"description":"===================================================================\r\nGeneral\r\nComplete name               : Andaaz (2003) HDRip 720p x264 AAC [ TaRa ].mkv\r\nFormat                      : Matroska\r\nFormat version              : Version 4 / Version 2\r\nFile size                   : 1.14 GiB\r\nDuration                    : 2h 26mn\r\nOverall bit rate            : 1 118 Kbps\r\n======================================================================\r\nVideo\r\nID                          : 1\r\nFormat                      : AVC\r\nFormat/Info                 : Advanced Video Codec\r\nFormat profile              :   \r\nFormat settings, CABAC      : Yes\r\nFormat settings, ReFrames   : 4 frames\r\nCodec ID                    : V_MPEG4/ISO/AVC\r\nDuration                    : 2h 26mn\r\nBit rate                    : 1 020 Kbps\r\nWidth                       : 1 280 pixels\r\nHeight                      : 544 pixels\r\nDisplay aspect ratio        : 2.35:1\r\nFrame rate mode             : Constant\r\nFrame rate                  : 25.000 fps\r\nColor space                 : YUV\r\nChroma subsampling          : 4:2:0\r\nBit depth                   : 8 bits\r\nScan type                   : Progressive\r\nBits/(Pixel*Frame)          : 0.059\r\nStream size                 : 1.04 GiB (91%)\r\nTitle                       : .....::::: TaRa :::::.....\r\nLanguage                    : Hindi\r\nDefault                     : Yes\r\nForced                      : No\r\n=====================================================================\r\nAudio\r\nID                          : 2\r\nFormat                      : AAC\r\nFormat/Info                 : Advanced Audio Codec\r\nFormat profile              : LC\r\nCodec ID                    : A_AAC\r\nDuration                    : 2h 26mn\r\nBit rate                    : 96.0 Kbps\r\nChannel(s)                  : 2 channels\r\nChannel positions           : Front: L R\r\nSampling rate               : 48.0 KHz\r\nFrame rate                  : 46.875 fps (1024 spf)\r\nCompression mode            : Lossy\r\nDelay relative to video     : -71ms\r\nStream size                 : 100 MiB (9%)\r\nTitle                       : .....::::: TaRa :::::.....\r\nLanguage                    : Hindi\r\nDefault                     : Yes\r\nForced                      : No\r\n===================================================================== \nhttps://extraimago.com/image/w4d0 \nhttps://extraimago.com/image/w4dK \nhttps://extraimago.com/image/w4dZ \nhttps://extraimago.com/image/w4de \nhttps://extraimago.com/image/w4d4 \nhttps://extraimago.com/image/w4dB \nhttps://extraimago.com/image/w4dC \nhttps://extraimago.com/image/w4dY \nhttps://extraimago.com/image/w4dp \nhttps://extraimago.com/image/w4dr \nhttps://extraimago.com/image/w4dG \nhttps://extraimago.com/image/w4dP \nhttps://extraimago.com/image/w4dX","torrent":{"xt":"urn:btih:6975e4b267cad2505517c4e9716718f633d3a243","amp;dn":"Andaaz+%282003%29+HDRip+720p+x264+AAC+%5B+TaRa+%5D.mkv","amp;tr":["udp%3A%2F%2Ftracker.leechers-paradise.org%3A6969","udp%3A%2F%2Fzer0day.ch%3A1337","udp%3A%2F%2Fopen.demonii.com%3A1337","udp%3A%2F%2Ftracker.coppersurfer.tk%3A6969","udp%3A%2F%2Fexodus.desync.com%3A6969"],"infoHash":"6975e4b267cad2505517c4e9716718f633d3a243","infoHashBuffer":{"type":"Buffer","data":[105,117,228,178,103,202,210,80,85,23,196,233,113,103,24,246,51,211,162,67]},"announce":[],"urlList":[]}}